<svg width="99" height="32" viewBox="0 0 99 32" fill="none" xmlns="http://www.w3.org/2000/svg">
<path d="M9.61768 18.3437V14.4251C9.61768 12.9354 8.83788 12.0934 7.14825 12.0934C5.45869 12.0934 4.67888 12.9354 4.67888 14.4251V18.3437C4.67888 19.8334 5.45869 20.6754 7.14825 20.6754C8.83788 20.6754 9.61768 19.8334 9.61768 18.3437ZM0 18.2141V14.5547C0 11.3162 1.5271 8.17484 7.14825 8.17484C12.7694 8.17484 14.2966 11.3162 14.2966 14.5547V18.2141C14.2966 21.4527 12.7694 24.594 7.14825 24.594C1.5271 24.594 0 21.4527 0 18.2141Z" fill="#FEFEFE"/>
<path d="M26.8592 24.2874V13.8485C26.8592 13.1353 26.5359 12.7139 25.7278 12.7139C24.8873 12.7139 23.3357 13.2974 22.3336 13.8485V24.2874H17.6787V8.49935H21.1375L21.6224 9.69883C23.562 8.75868 26.0834 8.17516 27.8936 8.17516C30.5767 8.17516 31.5141 10.1852 31.5141 13.2325V24.2874H26.8592Z" fill="#FEFEFE"/>
<path d="M47.4321 24.2874V2.07108L52.1134 1.42337V24.2874H47.4321ZM44.5389 5.50395C43.8887 5.37442 43.206 5.30963 42.6534 5.30963C41.158 5.30963 41.0605 5.95733 41.0605 6.9937V8.83963H44.6039L44.2788 12.6611H41.0605V24.2874H36.3793V12.6611H33.9736V8.83963H36.3793V6.47552C36.3793 3.23697 37.9072 1.42337 41.7432 1.42337C43.076 1.42337 44.0188 1.55296 45.124 1.84442L44.5389 5.50395Z" fill="#FEFEFE"/>
<path d="M58.7573 30.5786L60.5992 24.2145H59.1127L54.2656 8.48181H58.9835L62.1826 19.6271L65.3817 8.48181H70.0995L65.1554 24.2145L63.152 30.5786H58.7573Z" fill="#FEFEFE"/>
<path fill-rule="evenodd" clip-rule="evenodd" d="M94.1079 10.178C93.4964 10.6428 92.836 11.0471 92.1344 11.379C91.6097 10.1527 90.9318 9.00738 90.126 7.96519C90.6307 8.10834 91.1185 8.2909 91.5872 8.50778L91.1438 9.08626L92.1868 9.36452L92.6008 9.05C93.1389 9.37899 93.6437 9.75659 94.1079 10.178ZM97.3557 17.0745H93.3821C93.3342 15.3743 93.0143 13.742 92.4647 12.2186C93.2826 11.8379 94.0493 11.3671 94.7542 10.8208C96.2821 12.485 97.2484 14.6685 97.3557 17.0745ZM94.6166 24.372C93.96 23.79 93.2324 23.2858 92.4479 22.8745C93.008 21.3376 93.3337 19.6889 93.3821 17.9711H97.3557C97.2452 20.4486 96.224 22.6904 94.6166 24.372ZM90.1244 27.0809C90.9205 26.0517 91.592 24.9221 92.1141 23.7129C92.7803 24.0704 93.4006 24.5014 93.9649 24.9945C92.8701 25.9509 91.5638 26.6729 90.1244 27.0809ZM87.8356 27.4493V22.5392C89.0629 22.5935 90.2325 22.8682 91.3055 23.3249C90.6773 24.7918 89.8073 26.157 88.7161 27.3717C88.4263 27.4103 88.1328 27.4361 87.8356 27.4493ZM87.8356 17.9711H92.4809C92.4346 19.5328 92.1466 21.0531 91.6339 22.4892C90.4593 21.9927 89.1787 21.6965 87.8356 21.6421V17.9711ZM87.8356 13.3296C89.1701 13.2805 90.4487 13.0149 91.6375 12.5666C92.1478 13.9997 92.4347 15.5165 92.4809 17.0745H87.8356V13.3296ZM87.8356 7.59628C88.1323 7.60937 88.4256 7.63537 88.7151 7.67371C89.8086 8.89085 90.6805 10.2586 91.3089 11.7289C90.2217 12.1391 89.0537 12.3838 87.8356 12.4324V7.59628ZM86.9351 12.4324C85.717 12.3838 84.5489 12.139 83.4617 11.7289C84.0902 10.2586 84.9621 8.89085 86.0555 7.67377C86.3449 7.63537 86.6383 7.60937 86.9351 7.59628V12.4324ZM86.9351 17.0745H82.2897C82.3359 15.5165 82.6228 13.9997 83.1332 12.5666C84.3219 13.0149 85.6006 13.2805 86.9351 13.3296V17.0745ZM86.9351 21.6421C85.5919 21.6965 84.3114 21.9927 83.1366 22.4892C82.624 21.0531 82.3361 19.5328 82.2897 17.9711H86.9351V21.6421ZM86.9351 27.4493C86.638 27.4362 86.3443 27.4102 86.0545 27.3717C84.9633 26.157 84.0933 24.7918 83.4652 23.3249C84.5382 22.8682 85.7078 22.5935 86.9351 22.5392V27.4493ZM80.8058 24.9945C81.3701 24.5014 81.9904 24.0704 82.6566 23.7129C83.1786 24.9221 83.8502 26.0517 84.6463 27.0809C83.2069 26.6729 81.9005 25.9509 80.8058 24.9945ZM77.4149 17.9711H81.3885C81.437 19.6889 81.7627 21.3376 82.3228 22.8745C81.5382 23.2858 80.8107 23.79 80.1541 24.372C78.5467 22.6904 77.5255 20.4486 77.4149 17.9711ZM80.0165 10.8208C80.7213 11.3671 81.4881 11.8379 82.306 12.2186C81.7564 13.742 81.4365 15.3743 81.3885 17.0745H77.4149C77.5223 14.6685 78.4886 12.485 80.0165 10.8208ZM84.6447 7.96519C83.8389 9.00738 83.161 10.1527 82.6363 11.3789C81.9346 11.0471 81.2743 10.6428 80.6628 10.178C81.7856 9.15872 83.1428 8.39125 84.6447 7.96519ZM97.1379 5.58064L96.3112 5.36011L94.456 0.933283L93.413 0.655029L93.9473 4.7827L91.2886 4.15077L90.6939 2.69831L89.7438 2.44486L89.9797 4.07724C88.9434 3.83122 87.8621 3.70059 86.7499 3.70059C79.0824 3.70059 72.8667 9.88898 72.8667 17.5228C72.8667 25.1566 79.0824 31.345 86.7499 31.345C87.326 31.345 87.8938 31.3095 88.4514 31.2416C88.2385 31.2515 88.0244 31.257 87.8089 31.257C80.3072 31.257 74.2258 25.2024 74.2258 17.7337C74.2258 10.2649 80.3072 4.21033 87.8089 4.21033C88.4948 4.21033 89.1684 4.26207 89.827 4.35984L89.901 4.39862L88.8651 5.70975L89.8152 5.9632L91.0597 5.0014L93.6796 5.77761L92.1459 7.77878C90.7079 7.08107 89.0927 6.68918 87.3854 6.68918C81.3756 6.68918 76.5038 11.5396 76.5038 17.5228C76.5038 23.5061 81.3756 28.3564 87.3854 28.3564C93.395 28.3564 98.2668 23.5061 98.2668 17.5228C98.2668 13.7382 96.3172 10.4075 93.3638 8.4702L96.0167 6.4543L96.8434 6.67489C97.6392 6.88717 98.8568 7.15573 98.9899 6.6611C99.123 6.16648 97.9337 5.79291 97.1379 5.58064Z" fill="#FEFEFE"/>
</svg>
